<svg width="52" height="52" viewBox="0 0 52 52" fill="none" xmlns="http://www.w3.org/2000/svg">
<rect x="0.5" y="0.5" width="51" height="51" rx="9.5" stroke="white"/>
<path d="M25.9905 9.33337C22.6942 9.33337 19.4718 10.3109 16.731 12.1422C13.9902 13.9736 11.854 16.5765 10.5925 19.622C9.33107 22.6674 9.00102 26.0185 9.64411 29.2515C10.2872 32.4846 11.8745 35.4543 14.2054 37.7852C16.5363 40.116 19.506 41.7034 22.739 42.3465C25.972 42.9896 29.3231 42.6595 32.3686 41.398C35.414 40.1366 38.017 38.0004 39.8484 35.2595C41.6797 32.5187 42.6572 29.2964 42.6572 26C42.6574 23.8113 42.2264 21.6439 41.3889 19.6218C40.5514 17.5996 39.3237 15.7622 37.776 14.2145C36.2284 12.6668 34.391 11.4392 32.3688 10.6017C30.3466 9.76416 28.1793 9.33319 25.9905 9.33337ZM31.2897 34.5875C31.2273 34.743 31.1324 34.8835 31.0113 34.9993C30.8902 35.1152 30.7458 35.2038 30.5876 35.2593C30.4295 35.3148 30.2613 35.3358 30.0944 35.321C29.9274 35.3062 29.7656 35.2558 29.6197 35.1733L25.0953 31.6577L22.1914 34.3367C22.124 34.3865 22.0452 34.4185 21.9622 34.4299C21.8792 34.4412 21.7947 34.4315 21.7164 34.4016L22.2731 29.4208L22.2909 29.435L22.3023 29.3366C22.3023 29.3366 30.4439 21.9241 30.7756 21.6083C31.1114 21.2933 31.0006 21.225 31.0006 21.225C31.0197 20.8408 30.3981 21.225 30.3981 21.225L19.6105 28.165L15.118 26.635C15.118 26.635 14.428 26.3875 14.363 25.8434C14.2947 25.3034 15.1405 25.01 15.1405 25.01L33.0022 17.9142C33.0022 17.9142 34.4705 17.26 34.4705 18.3434L31.2897 34.5875Z" fill="white"/>
</svg>
